# xmcd CD database file generated by Grip 3.3.1
# 
# Track frame offsets:
#       150
#       16290
#       36312
#       53800
#       80987
#       97552
#       118727
#       140665
#       157850
#       180710
#       197225
#       217182
# 
# Disc length: 3167 seconds
# 
# Revision: 1
# Processed by: cddbd v1.5.2PL0 Copyright (c) Steve Scherf et al.
# Submitted via: Grip 3.3.1
# 
DISCID=a70c5d0c
DTITLE=Rojitas - Tierra Santa
DYEAR=2004
DGENRE=Salsa
TTITLE0=El Dueno Del Swing
TTITLE1=Ahora Si
TTITLE2=Para Quedarse Siempre
TTITLE3=Tierra Santa
TTITLE4=Una Noviecita pa' mi
TTITLE5=Hechizo De Luna
TTITLE6=Forever And Ever
TTITLE7=Dame Bombon
TTITLE8=Pero No Me Dejes
TTITLE9=Traigo El Tumba'o
TTITLE10=Dime Corazon
TTITLE11=Chin Chin Chin
EXTD=YEAR: 2004
EXTT0=
EXTT1=
EXTT2=
EXTT3=
EXTT4=
EXTT5=
EXTT6=
EXTT7=
EXTT8=
EXTT9=
EXTT10=
EXTT11=
PLAYORDER=
